<?xml version="1.0" encoding="utf-8"?>
<svg version="1.1" xmlns="http://www.w3.org/2000/svg" width="1000" height="1000" viewBox="">
  <path fill="#9d3291" opacity="1.000000" stroke="none" d="M 754.511 1085.98 C 729.96 1112.85 706.925 1140.14 681.56 1165.08 C 652.487 1193.62 624.937 1224.11 591.021 1247.3 C 581.017 1254.15 570.273 1260.6 558.949 1264.65 C 540.153 1271.38 521.175 1268.33 504.527 1257.76 C 487.73 1247.08 471.31 1235.49 456.156 1222.62 C 435.263 1204.87 415.371 1185.88 395.66 1166.78 C 359.126 1131.41 324.502 1094.2 292.771 1054.39 C 263.611 1017.81 234.893 980.844 210.299 940.969 C 192.976 912.884 176.09 884.468 160.397 855.446 C 139.212 816.266 120.508 775.883 104.83 734.069 C 89.134 692.208 78.101 649.163 69.228 605.466 C 56.624 543.396 58.707 481.31 70.36 419.474 C 81.265 361.608 103.078 307.905 134.352 257.984 C 160.97 215.492 193.333 178.075 231.426 145.619 C 255.5 125.108 282.12 108.294 309.255 92.183 C 353.88 65.689 402.687 50.417 452.882 39.952 C 510.427 27.952 568.397 27.854 626.302 39.416 C 676.874 49.514 724.919 66.531 770.209 91.089 C 796.619 105.409 820.954 122.918 844.024 142.227 C 872.034 165.672 897.374 191.799 919.336 220.856 C 933.6 239.73 946.069 260.099 957.998 280.583 C 986.192 328.996 1002.5 381.834 1011.64 436.768 C 1019.35 483.166 1020.87 530.003 1012.92 576.606 C 1007.17 610.278 999.599 643.578 989.752 676.368 C 971.968 735.582 947.776 792.059 918.36 846.302 C 903.517 873.673 888.353 900.919 872.068 927.441 C 859.48 947.943 845.294 967.501 831.146 986.989 C 813.97 1010.65 796.227 1033.91 778.442 1057.12 C 771.008 1066.82 762.834 1075.96 754.511 1085.98 M 820.78 869.546 C 806.125 862.675 791.469 855.805 775.656 848.392 C 790.435 826.56 804.851 806.15 818.31 785.127 C 831.89 763.918 843.647 741.66 853.386 716.724 C 816.863 688.776 780.274 661.305 744.275 633.077 C 708.299 604.865 672.913 575.897 637.013 547.056 C 587.676 585.737 542.812 627.497 499.076 670.086 C 462.812 705.397 431.405 745.716 397.888 783.852 C 397.199 784.634 396.949 785.825 396.587 786.858 C 396.485 787.151 396.675 787.573 396.794 787.913 C 396.909 788.243 397.103 788.542 397.795 789.893 C 440.889 782.322 484.528 778.395 528.741 783.253 C 559.688 786.655 645.207 808.496 657.25 818.236 C 653.837 818.468 651.447 818.825 649.07 818.763 C 618.101 817.954 587.801 822.648 557.927 830.284 C 527.034 838.179 496.632 847.455 468.909 863.931 C 446.821 877.059 426.694 892.761 407.684 909.939 C 398.647 918.107 390.04 926.753 380.01 935.57 C 378.664 937.038 377.318 938.508 375.972 939.977 C 376.271 940.395 376.57 940.813 376.868 941.231 C 379.053 939.883 381.24 938.534 385.02 937.03 C 406.501 927.094 427.675 916.416 449.521 907.362 C 512.168 881.397 577.334 865.615 645.142 861.987 C 689.203 859.629 733.19 861.421 776.986 867.003 C 791.962 868.91 806.914 871.001 822.87 873.963 C 824.881 874.17 826.892 874.378 828.905 874.585 C 828.936 873.963 828.968 873.339 829 872.717 C 826.603 872.046 824.206 871.377 820.78 869.546 M 822.766 642.955 C 836.539 655.722 850.313 668.49 864.504 681.645 C 866.062 679.519 867.249 678.503 867.669 677.232 C 871.858 664.564 876.423 651.992 879.918 639.129 C 888.611 607.129 893.15 574.386 894.718 541.33 C 895.56 523.558 895.835 505.56 894.036 487.901 C 889.057 439.057 876.874 392.139 852.152 349.186 C 839.171 326.633 824.896 305.015 807.387 285.579 C 792.938 269.539 776.859 255.395 760.515 241.398 C 724.1 210.215 682.518 189.001 636.708 175.797 C 594.992 163.774 552.563 159.415 509.126 162.628 C 460.628 166.215 415.098 179.838 372.023 201.583 C 326.021 224.806 287.469 257.649 255.383 297.932 C 235.043 323.47 216.463 350.206 203.643 380.56 C 183.294 428.741 173.354 479.06 172.679 531.245 C 172.294 561.032 175.526 590.544 180.986 619.807 C 181.152 620.698 182.325 621.399 183.029 622.191 C 190.83 614.723 197.602 606.008 206.371 600.472 C 215.117 594.952 225.867 592.62 236.147 588.736 C 226.913 575.231 211.585 569.76 198.206 560.582 C 206.024 553.07 214.465 551.517 223.423 550.803 C 242.664 549.269 256.561 558.835 269.268 574.824 C 271.351 571.552 272.387 569.574 273.743 567.849 C 283.906 554.937 297.37 547.567 313.517 545.985 C 322.432 545.112 331.583 545.929 339.475 554.024 C 326.821 564.081 312.684 570.649 305.005 584.098 C 314.889 587.526 324.816 589.561 333.239 594.289 C 341.528 598.942 348.292 606.323 357.408 613.907 C 367.334 554.465 379.144 497.854 413.36 446.667 C 399.851 450.137 390.689 456.198 382.836 464.001 C 368.15 478.595 352.221 492.244 343.406 511.74 C 343.104 512.407 342.79 513.258 342.227 513.589 C 340.097 514.844 337.662 517.048 335.728 516.704 C 334.168 516.428 332.231 513.075 332.054 510.952 C 328.993 474.418 339.377 443.445 369.849 421.016 C 373.575 418.272 377.374 415.627 381.774 412.482 C 379.924 411.432 379.047 410.495 378.2 410.521 C 366.728 410.882 355.238 411.061 343.8 411.921 C 328.798 413.047 314.984 418.416 301.574 424.955 C 298.709 426.353 295.713 428.761 292.597 425.308 C 299.704 375.622 351.557 352.308 393.7 366.245 C 396.168 367.063 398.688 367.719 401.182 368.449 C 401.591 367.789 402.001 367.128 402.409 366.467 C 400.241 363.607 398.282 360.55 395.854 357.929 C 391.566 353.301 387.207 348.693 382.497 344.508 C 367.236 330.942 351.683 317.826 331.418 312.043 C 327.792 311.007 324.566 308.569 320.724 306.552 C 333.097 295.586 358.626 291.132 381.012 295.422 C 416.998 302.315 437.989 326.067 451.571 360.876 C 465.536 339.005 484.04 325.281 507.752 320.063 C 532.57 314.603 554.085 322.599 575.418 339.598 C 570.698 341.536 567.978 343.348 565.071 343.732 C 543.901 346.525 525.645 356.296 508.039 367.495 C 503.347 370.481 498.128 373.362 494.957 379.402 C 519.106 381.164 541.454 385.41 560.434 400.32 C 578.743 414.702 590.967 444.746 584.741 462.621 C 557.546 444.62 529.557 428.643 494.82 422.317 C 497.356 426.024 498.354 428.327 500.054 429.843 C 535.705 461.664 536.427 501.736 518.885 538.144 C 517.008 542.04 514.725 545.848 508.383 546.37 C 507.882 528.594 503.808 512.308 495.477 497.1 C 486.251 480.257 472.176 459.99 466.388 456.349 C 466.249 456.694 466.002 457.035 465.991 457.384 C 465.961 458.479 465.842 459.615 466.069 460.666 C 472.171 488.962 466.339 515.186 452.339 539.967 C 449.475 545.04 446.564 550.232 438.677 551.879 C 438.041 547.935 437.141 544.464 436.977 540.956 C 435.973 519.437 435.168 497.908 434.211 476.386 C 434.075 473.339 433.485 470.312 433.106 467.275 C 429.479 469.373 427.567 471.581 426.352 474.122 C 422.348 482.486 418.394 490.888 414.783 499.426 C 398.887 537.009 388.873 576.386 385.803 616.831 C 382.942 654.541 384.115 692.561 383.639 730.446 C 383.616 732.276 384.824 734.123 386.493 738.959 C 390.038 734.306 392.095 731.266 394.488 728.519 C 414.223 705.883 433.679 682.989 453.899 660.794 C 472.891 639.946 492.758 619.898 512.159 599.42 C 548.418 561.15 585.315 523.538 624.986 488.764 C 635.222 479.79 640.845 479.643 651.136 488.763 C 666.954 502.782 682.581 517.019 698.166 531.298 C 711.57 543.577 724.59 556.282 738.154 568.379 C 765.82 593.048 793.739 617.434 822.766 642.955 M 222.717 746.645 C 236.406 774.961 250.892 802.807 269.098 827.555 C 281.932 823.042 293.64 818.56 305.591 814.866 C 312.197 812.823 311.895 808.477 310.923 803.509 C 306.013 778.397 301.321 753.238 295.982 728.216 C 290.146 700.855 280.162 674.897 267.808 649.849 C 266.64 647.477 264.787 645.444 262.21 641.769 C 256.47 653.484 251.067 663.197 246.89 673.412 C 242.81 683.391 239.981 693.885 236.007 705.959 C 232.945 702.231 230.66 700.577 229.972 698.413 C 227.4 690.319 224.602 682.179 223.262 673.835 C 220.518 656.739 226.868 641.216 235.129 624.674 C 231.324 625.224 229.437 625.051 227.998 625.777 C 217.449 631.097 206.608 635.98 196.612 642.214 C 186.968 648.231 186.822 649.439 190.843 660.614 C 201.007 688.864 211.579 716.969 222.717 746.645 M 312.202 630.266 C 324.834 643.374 330.014 659.049 327.87 677.061 C 327.555 679.709 325.75 682.178 324.634 684.731 C 321.812 683.441 318.258 682.826 316.327 680.716 C 312.867 676.932 310.402 672.237 307.481 667.95 C 305.049 664.383 302.31 661.274 296.011 660.914 C 316.9 701.868 323.278 746.29 338.977 787.887 C 347.067 785.767 349.389 780.389 349.344 773.533 C 349.287 764.266 348.843 755 348.858 745.733 C 348.904 715.75 349.091 685.769 349.208 655.786 C 349.238 648.122 349.213 640.456 349.213 632.96 C 331.638 625.079 313.09 620.285 305.708 621.998 C 307.618 624.526 309.348 626.815 312.202 630.266 Z" style=""/>
  <path fill="#9d3291" opacity="1.000000" stroke="none" d=" M576.679932,667.637817 C571.060730,667.959167 567.981628,666.468323 568.026367,661.092224 C568.092834,653.112061 568.085449,645.130493 568.017517,637.150330 C567.975037,632.157288 570.348999,629.854553 575.317993,629.907410 C582.300415,629.981750 589.284912,629.977112 596.267273,629.898499 C601.053589,629.844666 603.996460,631.866272 604.043213,636.838867 C604.118286,644.814758 604.257812,652.810242 603.797852,660.764404 C603.435547,667.029419 602.297058,667.835205 595.547546,667.966431 C589.570496,668.082642 583.585022,667.765930 576.679932,667.637817 z"/>
  <path fill="#9d3291" opacity="1.000000" stroke="none" d=" M630.057007,676.227478 C648.670288,676.142212 648.766174,674.769836 648.537903,693.380249 C648.476807,698.360413 648.436035,703.343750 648.539917,708.322388 C648.642151,713.228516 646.358459,715.901672 641.475769,715.906433 C634.175171,715.913635 626.874084,715.687683 619.573669,715.537231 C615.448120,715.452271 613.648560,713.181091 613.654236,709.191772 C613.665466,701.222473 613.501526,693.250061 613.673401,685.284668 C613.847717,677.211365 614.725891,676.498108 623.141846,676.238464 C625.132324,676.177002 627.126221,676.228027 630.057007,676.227478 z"/>
  <path fill="#9d3291" opacity="1.000000" stroke="none" d=" M614.513855,664.759766 C614.089172,653.135498 614.089172,642.323425 614.089172,630.719299 C625.353455,630.719299 635.724182,630.719299 647.344666,630.719299 C647.614136,635.717102 648.149780,640.540710 648.087769,645.356689 C647.758301,670.924377 652.091309,667.399048 625.251587,667.542908 C621.817566,667.561340 618.376404,666.261230 614.513855,664.759766 z"/>
  <path fill="#9d3291" opacity="1.000000" stroke="none" d=" M569.317261,692.167603 C569.315979,676.680542 567.600403,675.996704 584.716064,676.251770 C589.024597,676.315979 593.334778,676.262329 597.643860,676.302551 C601.647522,676.339905 603.913269,678.450623 603.969543,682.392151 C604.097351,691.339539 604.062622,700.290466 603.981628,709.238953 C603.947754,712.981995 601.501465,714.497009 598.110962,714.532654 C590.488281,714.612854 582.863525,714.602295 575.240784,714.519165 C571.077454,714.473755 569.435486,711.881042 569.382446,708.051819 C569.313538,703.080322 569.334961,698.107605 569.317261,692.167603 z"/>
</svg>